<svg id="Capa_1" enable-background="new 0 0 512 512" height="512" viewBox="0 0 512 512" width="512" xmlns="http://www.w3.org/2000/svg" xmlns:xlink="http://www.w3.org/1999/xlink"><linearGradient id="SVGID_1_" gradientUnits="userSpaceOnUse" x1="256" x2="256" y1="512" y2="0"><stop offset="0" stop-color="#ffc2cc"/><stop offset="1" stop-color="#fff2f4"/></linearGradient><linearGradient id="SVGID_2_" gradientUnits="userSpaceOnUse" x1="256" x2="256" y1="407" y2="105"><stop offset="0" stop-color="#ffa68d"/><stop offset="1" stop-color="#fd3a84"/></linearGradient><g><g><circle cx="256" cy="256" fill="url(#SVGID_1_)" r="256"/></g><g><g><path d="m256 158.294c-34.289 0-62.192 27.896-62.192 62.177 0 34.28 27.903 62.176 62.192 62.176s62.192-27.896 62.192-62.176c0-34.281-27.903-62.177-62.192-62.177zm0 106.588c-24.493 0-44.423-19.925-44.423-44.412s19.93-44.412 44.423-44.412 44.423 19.925 44.423 44.412c0 24.488-19.93 44.412-44.423 44.412zm0-71.059c-14.698 0-26.654 11.953-26.654 26.647s11.956 26.647 26.654 26.647 26.654-11.953 26.654-26.647c0-14.693-11.956-26.647-26.654-26.647zm0-88.823c-63.685 0-115.5 51.802-115.5 115.471 0 40.771 21.302 76.593 53.308 97.145v80.502c0 4.91 3.974 8.882 8.885 8.882s8.885-3.973 8.885-8.882v-26.647h88.846v26.647c0 4.91 3.974 8.882 8.885 8.882s8.885-3.973 8.885-8.882v-80.502c32.006-20.552 53.308-56.375 53.308-97.145-.002-63.669-51.817-115.471-115.502-115.471zm44.423 248.706h-88.846v-26.674c13.685 5.724 28.686 8.909 44.423 8.909s30.738-3.186 44.423-8.909zm-44.423-53.294c-44.093 0-79.962-35.859-79.962-79.941s35.868-79.941 79.962-79.941 79.962 35.859 79.962 79.941-35.869 79.941-79.962 79.941z" fill="url(#SVGID_2_)"/></g></g></g></svg>